{"title":"Raze (2013) DD5.1 Eng NL Subs WD-2-DVD-NLU002","uid":9485058,"size":4688143298,"categoryP":"video","categoryS":"movies_dvdr","magnet":"?xt=urn:btih:35af42f2e29987cccaeb5bec1d3d3abf7ef07f1c&amp;dn=Raze+%282013%29+DD5.1+Eng+NL+Subs+WD-2-DVD-NLU002&amp;tr=udp%3A%2F%2Ftracker.openbittorrent.com%3A80&amp;tr=udp%3A%2F%2Fopen.demonii.com%3A1337&amp;tr=udp%3A%2F%2Ftracker.coppersurfer.tk%3A6969&amp;tr=udp%3A%2F%2Fexodus.desync.com%3A6969","seeders":2,"leechers":1,"uploader":"NLUPPER002","files":-1,"time":1389873141,"description":"Raze (2013) DD5.1 Eng NL Subs WD-2-DVD-NLU002\n.\n[IMG]http://imagizer.imageshack.us/v2/800x600q90/203/v1jw.jpg[/IMG]\n.\n87 min  -  Action | Horror  -  21 April 2013 (USA) \n. &lt;a href=&quot;\nhttp://www.imdb.com/title/tt2111392/&quot; rel=&quot;nofollow&quot; target=&quot;_NEW&quot;&gt;\nhttp://www.imdb.com/title/tt2111392/&lt;/a&gt;\n. &lt;a href=&quot;\nhttp://www.moviemeter.nl/film/84426&quot; rel=&quot;nofollow&quot; target=&quot;_NEW&quot;&gt;\nhttp://www.moviemeter.nl/film/84426&lt;/a&gt;\n.\nPLOT\n.\nRaze, a horror/action film,\nfocuses on two abducted women &amp; 50 other women who are forced to fight each other using their bare hands. \n.\nSource: Raze.2013.720p.WEB-DL.H264\nFormat: DVD5\nVideo: NTSC \nAudio: English DD5.1 (Upscaled)\nSubtitles: English, Dutch\nNL Vertaling: Mark, Thanks\nMenu: Yes Custom by NLU002\nCharter selection: Yes 15x motion\nProgram used: TMPGEnc Authoring Works 5 \n.\n[b]Ondertitels: deze zijn prima, goede vertaler, hellaas wordt het steeds moeilijker om de\nmachine vertalers er tussen uit te filteren. (Ik probeer hier op te letten)\nOp de Nederlandse ondertitel sites laten ze tegenwoordig alles toe, het is gewoonweg schandaling,\nEen belg die google vertaald plaatsen ze op de NL vertaal Sites, alÃš, goed bezig jongens!!!\nNeem als voorbeeld Las Vegas, PROEST!!![/b]\n.\nEnjoy NLU002\n.\nOverall bit rate                         : 6 531 Kbps\n\nVideo\nID                                       : 224 (0xE0)\nFormat                                   : MPEG Video\nFormat version                           : Version 2\nFormat profile                           : Main@Main\nFormat settings, BVOP                    : Yes\nFormat settings, Matrix                  : Custom\nFormat settings, GOP                     : Variable\nDuration                                 : 21mn 55s\nBit rate                                 : 6 017 Kbps\nMaximum bit rate                         : 8 000 Kbps\nWidth                                    : 720 pixels\nHeight                                   : 480 pixels\nDisplay aspect ratio                     : 16:9\nFrame rate                               : 23.976 fps\nStandard                                 : NTSC\nColor space                              : YUV\nChroma subsampling                       : 4:2:0\nBit depth                                : 8 bits\nScan type                                : Progressive\nScan order                               : 2:3 Pulldown\nCompression mode                         : Lossy\nBits/(Pixel*Frame)                       : 0.726\nTime code of first frame                 : 00:00:00:00\nTime code source                         : Group of pictures header\nStream size                              : 943 MiB (92%)\nColor primaries                          : BT.601 NTSC\nTransfer characteristics                 : BT.601\nMatrix coefficients                      : BT.601\n\nAudio\nID                                       : 189 (0xBD)-128 (0x80)\nFormat                                   : AC-3\nFormat/Info                              : Audio Coding 3\nMode extension                           : CM (complete main)\nFormat settings, Endianness              : Big\nMuxing mode                              : DVD-Video\nDuration                                 : 21mn 55s\nBit rate mode                            : Constant\nBit rate                                 : 384 Kbps\nChannel(s)                               : 6 channels\nChannel positions                        : Front: L C R, Side: L R, LFE\nSampling rate                            : 48.0 KHz\nBit depth                                : 16 bits\nCompression mode                         : Lossy\nStream size                              : 60.2 MiB (6%)\n\n\n","torrent":{"xt":"urn:btih:35af42f2e29987cccaeb5bec1d3d3abf7ef07f1c","amp;dn":"Raze+%282013%29+DD5.1+Eng+NL+Subs+WD-2-DVD-NLU002","amp;tr":["udp%3A%2F%2Ftracker.openbittorrent.com%3A80","udp%3A%2F%2Fopen.demonii.com%3A1337","udp%3A%2F%2Ftracker.coppersurfer.tk%3A6969","udp%3A%2F%2Fexodus.desync.com%3A6969"],"infoHash":"35af42f2e29987cccaeb5bec1d3d3abf7ef07f1c","infoHashBuffer":{"type":"Buffer","data":[53,175,66,242,226,153,135,204,202,235,91,236,29,61,58,191,126,240,127,28]},"announce":[],"urlList":[]}}